M48
;DRILL file {KiCad (5.0.0-3-g5ebb6b6)} date Wednesday, October 17, 2018 at 11:41:51 AM
;FORMAT={3:3/ absolute / metric / suppress leading zeros}
FMAT,2
METRIC,TZ
T1C0.800
T2C1.000
T3C1.300
T4C1.400
T5C2.700
%
G90
G05
M71
T1
X64770Y-113030
X72390Y-113030
X57150Y-120650
X57150Y-128270
X59690Y-120650
X59690Y-128270
X62230Y-120650
X62230Y-128270
X64770Y-120650
X64770Y-128270
X67310Y-120650
X67310Y-128270
X69850Y-120650
X69850Y-128270
X72390Y-120650
X72390Y-128270
T2
X59014Y-112469
X59014Y-115009
T3
X76200Y-102807
X81200Y-102807
X86200Y-102807
X91200Y-102807
X96200Y-102807
X101200Y-102807
X106200Y-102807
X76200Y-64707
X81200Y-64707
X86200Y-64707
X91200Y-64707
X96200Y-64707
X101200Y-64707
X106200Y-64707
T4
X58420Y-65007
X58420Y-69207
X58420Y-73407
X58420Y-77607
X58420Y-81807
X58420Y-86007
X58420Y-90207
X58420Y-94407
X58420Y-98607
X58420Y-102807
X63920Y-65007
X63920Y-69207
X63920Y-73407
X63920Y-77607
X63920Y-81807
X63920Y-86007
X63920Y-90207
X63920Y-94407
X63920Y-98607
X63920Y-102807
T5
X108000Y-52500
X108000Y-141500
X54000Y-141500
X54000Y-52500
T0
M30
