G04 #@! TF.GenerationSoftware,KiCad,Pcbnew,(5.0.0-3-g5ebb6b6)*
G04 #@! TF.CreationDate,2018-10-17T11:41:57-07:00*
G04 #@! TF.ProjectId,PicoPSU,5069636F5053552E6B696361645F7063,rev?*
G04 #@! TF.SameCoordinates,Original*
G04 #@! TF.FileFunction,Copper,L2,Bot,Signal*
G04 #@! TF.FilePolarity,Positive*
%FSLAX46Y46*%
G04 Gerber Fmt 4.6, Leading zero omitted, Abs format (unit mm)*
G04 Created by KiCad (PCBNEW (5.0.0-3-g5ebb6b6)) date Wednesday, October 17, 2018 at 11:41:57 AM*
%MOMM*%
%LPD*%
G01*
G04 APERTURE LIST*
G04 #@! TA.AperFunction,ComponentPad*
%ADD10R,2.600000X2.600000*%
G04 #@! TD*
G04 #@! TA.AperFunction,ComponentPad*
%ADD11C,2.600000*%
G04 #@! TD*
G04 #@! TA.AperFunction,ComponentPad*
%ADD12O,3.300000X2.700000*%
G04 #@! TD*
G04 #@! TA.AperFunction,ComponentPad*
%ADD13R,3.300000X2.700000*%
G04 #@! TD*
G04 #@! TA.AperFunction,ComponentPad*
%ADD14O,1.600000X1.600000*%
G04 #@! TD*
G04 #@! TA.AperFunction,ComponentPad*
%ADD15R,1.600000X1.600000*%
G04 #@! TD*
G04 #@! TA.AperFunction,ComponentPad*
%ADD16C,1.600000*%
G04 #@! TD*
G04 #@! TA.AperFunction,ComponentPad*
%ADD17O,1.700000X1.700000*%
G04 #@! TD*
G04 #@! TA.AperFunction,ComponentPad*
%ADD18R,1.700000X1.700000*%
G04 #@! TD*
G04 #@! TA.AperFunction,Conductor*
%ADD19C,0.800000*%
G04 #@! TD*
G04 #@! TA.AperFunction,Conductor*
%ADD20C,3.000000*%
G04 #@! TD*
G04 #@! TA.AperFunction,Conductor*
%ADD21C,0.250000*%
G04 #@! TD*
G04 APERTURE END LIST*
D10*
G04 #@! TO.P,REF\002A\002A,1*
G04 #@! TO.N,N/C*
X76200000Y-102806500D03*
D11*
G04 #@! TO.P,REF\002A\002A,2*
X81200000Y-102806500D03*
G04 #@! TO.P,REF\002A\002A,3*
X86200000Y-102806500D03*
G04 #@! TO.P,REF\002A\002A,4*
X91200000Y-102806500D03*
G04 #@! TO.P,REF\002A\002A,5*
X96200000Y-102806500D03*
G04 #@! TO.P,REF\002A\002A,6*
X101200000Y-102806500D03*
G04 #@! TO.P,REF\002A\002A,7*
X106200000Y-102806500D03*
G04 #@! TD*
D12*
G04 #@! TO.P,PicoPSU,20*
G04 #@! TO.N,N/C*
X63920000Y-65006500D03*
G04 #@! TO.P,PicoPSU,19*
X63920000Y-69206500D03*
G04 #@! TO.P,PicoPSU,18*
X63920000Y-73406500D03*
G04 #@! TO.P,PicoPSU,17*
X63920000Y-77606500D03*
G04 #@! TO.P,PicoPSU,16*
X63920000Y-81806500D03*
G04 #@! TO.P,PicoPSU,15*
X63920000Y-86006500D03*
G04 #@! TO.P,PicoPSU,14*
X63920000Y-90206500D03*
G04 #@! TO.P,PicoPSU,13*
X63920000Y-94406500D03*
G04 #@! TO.P,PicoPSU,12*
X63920000Y-98606500D03*
G04 #@! TO.P,PicoPSU,11*
X63920000Y-102806500D03*
G04 #@! TO.P,PicoPSU,10*
X58420000Y-65006500D03*
G04 #@! TO.P,PicoPSU,9*
X58420000Y-69206500D03*
G04 #@! TO.P,PicoPSU,8*
X58420000Y-73406500D03*
G04 #@! TO.P,PicoPSU,7*
X58420000Y-77606500D03*
G04 #@! TO.P,PicoPSU,6*
X58420000Y-81806500D03*
G04 #@! TO.P,PicoPSU,5*
X58420000Y-86006500D03*
G04 #@! TO.P,PicoPSU,4*
X58420000Y-90206500D03*
G04 #@! TO.P,PicoPSU,3*
X58420000Y-94406500D03*
G04 #@! TO.P,PicoPSU,2*
X58420000Y-98606500D03*
D13*
G04 #@! TO.P,PicoPSU,1*
X58420000Y-102806500D03*
G04 #@! TD*
D14*
G04 #@! TO.P,74LS04,14*
G04 #@! TO.N,N/C*
X72390000Y-128270000D03*
G04 #@! TO.P,74LS04,7*
X57150000Y-120650000D03*
G04 #@! TO.P,74LS04,13*
X69850000Y-128270000D03*
G04 #@! TO.P,74LS04,6*
X59690000Y-120650000D03*
G04 #@! TO.P,74LS04,12*
X67310000Y-128270000D03*
G04 #@! TO.P,74LS04,5*
X62230000Y-120650000D03*
G04 #@! TO.P,74LS04,11*
X64770000Y-128270000D03*
G04 #@! TO.P,74LS04,4*
X64770000Y-120650000D03*
G04 #@! TO.P,74LS04,10*
X62230000Y-128270000D03*
G04 #@! TO.P,74LS04,3*
X67310000Y-120650000D03*
G04 #@! TO.P,74LS04,9*
X59690000Y-128270000D03*
G04 #@! TO.P,74LS04,2*
X69850000Y-120650000D03*
G04 #@! TO.P,74LS04,8*
X57150000Y-128270000D03*
D15*
G04 #@! TO.P,74LS04,1*
X72390000Y-120650000D03*
G04 #@! TD*
D14*
G04 #@! TO.P,4.7K,2*
G04 #@! TO.N,N/C*
X72390000Y-113030000D03*
D16*
G04 #@! TO.P,4.7K,1*
X64770000Y-113030000D03*
G04 #@! TD*
D17*
G04 #@! TO.P,Fan,2*
G04 #@! TO.N,N/C*
X59014360Y-115008660D03*
D18*
G04 #@! TO.P,Fan,1*
X59014360Y-112468660D03*
G04 #@! TD*
D10*
G04 #@! TO.P,REF\002A\002A,1*
G04 #@! TO.N,N/C*
X76200000Y-64706500D03*
D11*
G04 #@! TO.P,REF\002A\002A,2*
X81200000Y-64706500D03*
G04 #@! TO.P,REF\002A\002A,3*
X86200000Y-64706500D03*
G04 #@! TO.P,REF\002A\002A,4*
X91200000Y-64706500D03*
G04 #@! TO.P,REF\002A\002A,5*
X96200000Y-64706500D03*
G04 #@! TO.P,REF\002A\002A,6*
X101200000Y-64706500D03*
G04 #@! TO.P,REF\002A\002A,7*
X106200000Y-64706500D03*
G04 #@! TD*
D19*
G04 #@! TO.N,*
X64770000Y-113030000D02*
X64770000Y-116840000D01*
X64770000Y-116840000D02*
X76200000Y-116840000D01*
X76200000Y-116840000D02*
X76200000Y-132080000D01*
X76200000Y-132080000D02*
X72390000Y-132080000D01*
X72390000Y-132080000D02*
X72390000Y-128270000D01*
X106200000Y-102806500D02*
X106200000Y-113036500D01*
X106200000Y-113030000D02*
X72390000Y-113030000D01*
D20*
X63920000Y-98606500D02*
X76200000Y-98606500D01*
X76200000Y-98606500D02*
X76200000Y-102806500D01*
D21*
X76064000Y-98606500D02*
X76200000Y-98742500D01*
X63920000Y-94406500D02*
X65820000Y-94406500D01*
D20*
X86200000Y-102806500D02*
X86200000Y-94584500D01*
X101200000Y-94406500D02*
X63920000Y-94406500D01*
X86200000Y-94584500D02*
X86022000Y-94406500D01*
X63920000Y-86006500D02*
X101200000Y-86006500D01*
X91200000Y-86035300D02*
X91200000Y-102806500D01*
X96200000Y-102806500D02*
X96200000Y-81806500D01*
D21*
X64220000Y-77606500D02*
X65290000Y-78676500D01*
X63920000Y-77606500D02*
X64220000Y-77606500D01*
D20*
X101200000Y-102806500D02*
X101200000Y-77606500D01*
X100993700Y-77606500D02*
X63920000Y-77606500D01*
X58420000Y-77606500D02*
X63920000Y-77606500D01*
D21*
X58420000Y-77606500D02*
X60320000Y-77606500D01*
D20*
X58420000Y-86006500D02*
X63920000Y-86006500D01*
X68000000Y-100321000D02*
X76200000Y-100321000D01*
X63920000Y-69206500D02*
X70807580Y-69206500D01*
D21*
X71302880Y-59319160D02*
X71475600Y-59146440D01*
D20*
X52925980Y-57513220D02*
X101200000Y-57513220D01*
X96200000Y-57513220D02*
X96200000Y-64706500D01*
D21*
X96258380Y-59146440D02*
X96200000Y-59204820D01*
D20*
X63920000Y-65006500D02*
X63920000Y-54292500D01*
D21*
X63920000Y-58172720D02*
X64485520Y-57607200D01*
D20*
X63920000Y-55984140D02*
X101200000Y-55984140D01*
X91200000Y-55984140D02*
X91200000Y-64706500D01*
X58420000Y-81806500D02*
X52925980Y-81806500D01*
X54041040Y-81806500D02*
X54041040Y-59008560D01*
D21*
X53583840Y-59077860D02*
X53586380Y-59080400D01*
D20*
X52925980Y-59008560D02*
X101200000Y-59008560D01*
X101200000Y-54292500D02*
X101200000Y-64706500D01*
X52925980Y-81806500D02*
X52925980Y-57513220D01*
X101200000Y-79752800D02*
X69500000Y-79752800D01*
X101200000Y-83920940D02*
X69500000Y-83920940D01*
X101200000Y-88887300D02*
X69500000Y-88887300D01*
X101200000Y-91589200D02*
X69500000Y-91589200D01*
X101200000Y-81806500D02*
X63920000Y-81806500D01*
X69500000Y-94406500D02*
X69500000Y-77606500D01*
D19*
X61203840Y-94406500D02*
X61203840Y-112293400D01*
D20*
X58420000Y-94406500D02*
X61203840Y-94406500D01*
X61203840Y-94406500D02*
X63920000Y-94406500D01*
D19*
X61028580Y-112468660D02*
X59014360Y-112468660D01*
D21*
X61203840Y-112293400D02*
X61028580Y-112468660D01*
X56520000Y-94406500D02*
X56509620Y-94416880D01*
X58420000Y-94406500D02*
X56520000Y-94406500D01*
D19*
X58420000Y-94416880D02*
X54300000Y-94416880D01*
X54300000Y-94447360D02*
X54300000Y-120614440D01*
X54300000Y-120650000D02*
X57150000Y-120650000D01*
D20*
X70807580Y-69206500D02*
X70807580Y-57315100D01*
X69413120Y-69206500D02*
X69413120Y-57315100D01*
X63920000Y-54292500D02*
X101174600Y-54292500D01*
G04 #@! TD*
M02*
