G04 #@! TF.GenerationSoftware,KiCad,Pcbnew,(5.0.0-3-g5ebb6b6)*
G04 #@! TF.CreationDate,2018-10-17T11:41:57-07:00*
G04 #@! TF.ProjectId,PicoPSU,5069636F5053552E6B696361645F7063,rev?*
G04 #@! TF.SameCoordinates,Original*
G04 #@! TF.FileFunction,Legend,Top*
G04 #@! TF.FilePolarity,Positive*
%FSLAX46Y46*%
G04 Gerber Fmt 4.6, Leading zero omitted, Abs format (unit mm)*
G04 Created by KiCad (PCBNEW (5.0.0-3-g5ebb6b6)) date Wednesday, October 17, 2018 at 11:41:57 AM*
%MOMM*%
%LPD*%
G01*
G04 APERTURE LIST*
%ADD10C,0.300000*%
%ADD11C,0.120000*%
%ADD12C,0.150000*%
G04 APERTURE END LIST*
D10*
X106307142Y-76480714D02*
X106307142Y-75337857D01*
X106878571Y-75909285D02*
X105735714Y-75909285D01*
X105378571Y-73909285D02*
X105378571Y-74623571D01*
X106092857Y-74695000D01*
X106021428Y-74623571D01*
X105950000Y-74480714D01*
X105950000Y-74123571D01*
X106021428Y-73980714D01*
X106092857Y-73909285D01*
X106235714Y-73837857D01*
X106592857Y-73837857D01*
X106735714Y-73909285D01*
X106807142Y-73980714D01*
X106878571Y-74123571D01*
X106878571Y-74480714D01*
X106807142Y-74623571D01*
X106735714Y-74695000D01*
X105378571Y-73409285D02*
X106878571Y-72909285D01*
X105378571Y-72409285D01*
X106807142Y-70837857D02*
X106878571Y-70623571D01*
X106878571Y-70266428D01*
X106807142Y-70123571D01*
X106735714Y-70052142D01*
X106592857Y-69980714D01*
X106450000Y-69980714D01*
X106307142Y-70052142D01*
X106235714Y-70123571D01*
X106164285Y-70266428D01*
X106092857Y-70552142D01*
X106021428Y-70695000D01*
X105950000Y-70766428D01*
X105807142Y-70837857D01*
X105664285Y-70837857D01*
X105521428Y-70766428D01*
X105450000Y-70695000D01*
X105378571Y-70552142D01*
X105378571Y-70195000D01*
X105450000Y-69980714D01*
X106092857Y-68837857D02*
X106164285Y-68623571D01*
X106235714Y-68552142D01*
X106378571Y-68480714D01*
X106592857Y-68480714D01*
X106735714Y-68552142D01*
X106807142Y-68623571D01*
X106878571Y-68766428D01*
X106878571Y-69337857D01*
X105378571Y-69337857D01*
X105378571Y-68837857D01*
X105450000Y-68695000D01*
X105521428Y-68623571D01*
X105664285Y-68552142D01*
X105807142Y-68552142D01*
X105950000Y-68623571D01*
X106021428Y-68695000D01*
X106092857Y-68837857D01*
X106092857Y-69337857D01*
X101307142Y-72409285D02*
X101307142Y-71266428D01*
X101878571Y-71837857D02*
X100735714Y-71837857D01*
X100378571Y-69837857D02*
X100378571Y-70552142D01*
X101092857Y-70623571D01*
X101021428Y-70552142D01*
X100950000Y-70409285D01*
X100950000Y-70052142D01*
X101021428Y-69909285D01*
X101092857Y-69837857D01*
X101235714Y-69766428D01*
X101592857Y-69766428D01*
X101735714Y-69837857D01*
X101807142Y-69909285D01*
X101878571Y-70052142D01*
X101878571Y-70409285D01*
X101807142Y-70552142D01*
X101735714Y-70623571D01*
X100378571Y-69337857D02*
X101878571Y-68837857D01*
X100378571Y-68337857D01*
X96307142Y-72409285D02*
X96307142Y-71266428D01*
X96878571Y-71837857D02*
X95735714Y-71837857D01*
X95378571Y-69837857D02*
X95378571Y-70552142D01*
X96092857Y-70623571D01*
X96021428Y-70552142D01*
X95950000Y-70409285D01*
X95950000Y-70052142D01*
X96021428Y-69909285D01*
X96092857Y-69837857D01*
X96235714Y-69766428D01*
X96592857Y-69766428D01*
X96735714Y-69837857D01*
X96807142Y-69909285D01*
X96878571Y-70052142D01*
X96878571Y-70409285D01*
X96807142Y-70552142D01*
X96735714Y-70623571D01*
X95378571Y-69337857D02*
X96878571Y-68837857D01*
X95378571Y-68337857D01*
X91307142Y-72409285D02*
X91307142Y-71266428D01*
X91878571Y-71837857D02*
X90735714Y-71837857D01*
X90378571Y-69837857D02*
X90378571Y-70552142D01*
X91092857Y-70623571D01*
X91021428Y-70552142D01*
X90950000Y-70409285D01*
X90950000Y-70052142D01*
X91021428Y-69909285D01*
X91092857Y-69837857D01*
X91235714Y-69766428D01*
X91592857Y-69766428D01*
X91735714Y-69837857D01*
X91807142Y-69909285D01*
X91878571Y-70052142D01*
X91878571Y-70409285D01*
X91807142Y-70552142D01*
X91735714Y-70623571D01*
X90378571Y-69337857D02*
X91878571Y-68837857D01*
X90378571Y-68337857D01*
X86307142Y-73837857D02*
X86307142Y-72695000D01*
X86878571Y-73266428D02*
X85735714Y-73266428D01*
X86878571Y-71195000D02*
X86878571Y-72052142D01*
X86878571Y-71623571D02*
X85378571Y-71623571D01*
X85592857Y-71766428D01*
X85735714Y-71909285D01*
X85807142Y-72052142D01*
X85521428Y-70623571D02*
X85450000Y-70552142D01*
X85378571Y-70409285D01*
X85378571Y-70052142D01*
X85450000Y-69909285D01*
X85521428Y-69837857D01*
X85664285Y-69766428D01*
X85807142Y-69766428D01*
X86021428Y-69837857D01*
X86878571Y-70695000D01*
X86878571Y-69766428D01*
X85378571Y-69337857D02*
X86878571Y-68837857D01*
X85378571Y-68337857D01*
X81307142Y-73837857D02*
X81307142Y-72695000D01*
X81878571Y-73266428D02*
X80735714Y-73266428D01*
X81878571Y-71195000D02*
X81878571Y-72052142D01*
X81878571Y-71623571D02*
X80378571Y-71623571D01*
X80592857Y-71766428D01*
X80735714Y-71909285D01*
X80807142Y-72052142D01*
X80521428Y-70623571D02*
X80450000Y-70552142D01*
X80378571Y-70409285D01*
X80378571Y-70052142D01*
X80450000Y-69909285D01*
X80521428Y-69837857D01*
X80664285Y-69766428D01*
X80807142Y-69766428D01*
X81021428Y-69837857D01*
X81878571Y-70695000D01*
X81878571Y-69766428D01*
X80378571Y-69337857D02*
X81878571Y-68837857D01*
X80378571Y-68337857D01*
X106878571Y-99447857D02*
X105378571Y-99447857D01*
X105378571Y-98876428D01*
X105450000Y-98733571D01*
X105521428Y-98662142D01*
X105664285Y-98590714D01*
X105878571Y-98590714D01*
X106021428Y-98662142D01*
X106092857Y-98733571D01*
X106164285Y-98876428D01*
X106164285Y-99447857D01*
X105878571Y-98090714D02*
X106878571Y-97805000D01*
X106164285Y-97519285D01*
X106878571Y-97233571D01*
X105878571Y-96947857D01*
X106878571Y-96376428D02*
X105878571Y-96376428D01*
X106164285Y-96376428D02*
X106021428Y-96305000D01*
X105950000Y-96233571D01*
X105878571Y-96090714D01*
X105878571Y-95947857D01*
X105378571Y-95162142D02*
X105378571Y-94876428D01*
X105450000Y-94733571D01*
X105592857Y-94590714D01*
X105878571Y-94519285D01*
X106378571Y-94519285D01*
X106664285Y-94590714D01*
X106807142Y-94733571D01*
X106878571Y-94876428D01*
X106878571Y-95162142D01*
X106807142Y-95305000D01*
X106664285Y-95447857D01*
X106378571Y-95519285D01*
X105878571Y-95519285D01*
X105592857Y-95447857D01*
X105450000Y-95305000D01*
X105378571Y-95162142D01*
X105878571Y-93876428D02*
X106878571Y-93876428D01*
X106021428Y-93876428D02*
X105950000Y-93805000D01*
X105878571Y-93662142D01*
X105878571Y-93447857D01*
X105950000Y-93305000D01*
X106092857Y-93233571D01*
X106878571Y-93233571D01*
X76307142Y-99447857D02*
X76307142Y-98305000D01*
X76878571Y-96805000D02*
X76878571Y-97662142D01*
X76878571Y-97233571D02*
X75378571Y-97233571D01*
X75592857Y-97376428D01*
X75735714Y-97519285D01*
X75807142Y-97662142D01*
X75521428Y-96233571D02*
X75450000Y-96162142D01*
X75378571Y-96019285D01*
X75378571Y-95662142D01*
X75450000Y-95519285D01*
X75521428Y-95447857D01*
X75664285Y-95376428D01*
X75807142Y-95376428D01*
X76021428Y-95447857D01*
X76878571Y-96305000D01*
X76878571Y-95376428D01*
X75378571Y-94947857D02*
X76878571Y-94447857D01*
X75378571Y-93947857D01*
X81307142Y-99447857D02*
X81307142Y-98305000D01*
X81878571Y-98876428D02*
X80735714Y-98876428D01*
X81878571Y-96805000D02*
X81878571Y-97662142D01*
X81878571Y-97233571D02*
X80378571Y-97233571D01*
X80592857Y-97376428D01*
X80735714Y-97519285D01*
X80807142Y-97662142D01*
X80521428Y-96233571D02*
X80450000Y-96162142D01*
X80378571Y-96019285D01*
X80378571Y-95662142D01*
X80450000Y-95519285D01*
X80521428Y-95447857D01*
X80664285Y-95376428D01*
X80807142Y-95376428D01*
X81021428Y-95447857D01*
X81878571Y-96305000D01*
X81878571Y-95376428D01*
X80378571Y-94947857D02*
X81878571Y-94447857D01*
X80378571Y-93947857D01*
X85450000Y-98662142D02*
X85378571Y-98805000D01*
X85378571Y-99019285D01*
X85450000Y-99233571D01*
X85592857Y-99376428D01*
X85735714Y-99447857D01*
X86021428Y-99519285D01*
X86235714Y-99519285D01*
X86521428Y-99447857D01*
X86664285Y-99376428D01*
X86807142Y-99233571D01*
X86878571Y-99019285D01*
X86878571Y-98876428D01*
X86807142Y-98662142D01*
X86735714Y-98590714D01*
X86235714Y-98590714D01*
X86235714Y-98876428D01*
X86878571Y-97947857D02*
X85378571Y-97947857D01*
X86878571Y-97090714D01*
X85378571Y-97090714D01*
X86878571Y-96376428D02*
X85378571Y-96376428D01*
X85378571Y-96019285D01*
X85450000Y-95805000D01*
X85592857Y-95662142D01*
X85735714Y-95590714D01*
X86021428Y-95519285D01*
X86235714Y-95519285D01*
X86521428Y-95590714D01*
X86664285Y-95662142D01*
X86807142Y-95805000D01*
X86878571Y-96019285D01*
X86878571Y-96376428D01*
X90450000Y-98662142D02*
X90378571Y-98805000D01*
X90378571Y-99019285D01*
X90450000Y-99233571D01*
X90592857Y-99376428D01*
X90735714Y-99447857D01*
X91021428Y-99519285D01*
X91235714Y-99519285D01*
X91521428Y-99447857D01*
X91664285Y-99376428D01*
X91807142Y-99233571D01*
X91878571Y-99019285D01*
X91878571Y-98876428D01*
X91807142Y-98662142D01*
X91735714Y-98590714D01*
X91235714Y-98590714D01*
X91235714Y-98876428D01*
X91878571Y-97947857D02*
X90378571Y-97947857D01*
X91878571Y-97090714D01*
X90378571Y-97090714D01*
X91878571Y-96376428D02*
X90378571Y-96376428D01*
X90378571Y-96019285D01*
X90450000Y-95805000D01*
X90592857Y-95662142D01*
X90735714Y-95590714D01*
X91021428Y-95519285D01*
X91235714Y-95519285D01*
X91521428Y-95590714D01*
X91664285Y-95662142D01*
X91807142Y-95805000D01*
X91878571Y-96019285D01*
X91878571Y-96376428D01*
X95450000Y-98662142D02*
X95378571Y-98805000D01*
X95378571Y-99019285D01*
X95450000Y-99233571D01*
X95592857Y-99376428D01*
X95735714Y-99447857D01*
X96021428Y-99519285D01*
X96235714Y-99519285D01*
X96521428Y-99447857D01*
X96664285Y-99376428D01*
X96807142Y-99233571D01*
X96878571Y-99019285D01*
X96878571Y-98876428D01*
X96807142Y-98662142D01*
X96735714Y-98590714D01*
X96235714Y-98590714D01*
X96235714Y-98876428D01*
X96878571Y-97947857D02*
X95378571Y-97947857D01*
X96878571Y-97090714D01*
X95378571Y-97090714D01*
X96878571Y-96376428D02*
X95378571Y-96376428D01*
X95378571Y-96019285D01*
X95450000Y-95805000D01*
X95592857Y-95662142D01*
X95735714Y-95590714D01*
X96021428Y-95519285D01*
X96235714Y-95519285D01*
X96521428Y-95590714D01*
X96664285Y-95662142D01*
X96807142Y-95805000D01*
X96878571Y-96019285D01*
X96878571Y-96376428D01*
X100450000Y-98662142D02*
X100378571Y-98805000D01*
X100378571Y-99019285D01*
X100450000Y-99233571D01*
X100592857Y-99376428D01*
X100735714Y-99447857D01*
X101021428Y-99519285D01*
X101235714Y-99519285D01*
X101521428Y-99447857D01*
X101664285Y-99376428D01*
X101807142Y-99233571D01*
X101878571Y-99019285D01*
X101878571Y-98876428D01*
X101807142Y-98662142D01*
X101735714Y-98590714D01*
X101235714Y-98590714D01*
X101235714Y-98876428D01*
X101878571Y-97947857D02*
X100378571Y-97947857D01*
X101878571Y-97090714D01*
X100378571Y-97090714D01*
X101878571Y-96376428D02*
X100378571Y-96376428D01*
X100378571Y-96019285D01*
X100450000Y-95805000D01*
X100592857Y-95662142D01*
X100735714Y-95590714D01*
X101021428Y-95519285D01*
X101235714Y-95519285D01*
X101521428Y-95590714D01*
X101664285Y-95662142D01*
X101807142Y-95805000D01*
X101878571Y-96019285D01*
X101878571Y-96376428D01*
D11*
G04 #@! TO.C,REF\002A\002A*
X78380000Y-102806500D02*
G75*
G03X78380000Y-102806500I-2180000J0D01*
G01*
X83380000Y-102806500D02*
G75*
G03X83380000Y-102806500I-2180000J0D01*
G01*
X88380000Y-102806500D02*
G75*
G03X88380000Y-102806500I-2180000J0D01*
G01*
X93380000Y-102806500D02*
G75*
G03X93380000Y-102806500I-2180000J0D01*
G01*
X98380000Y-102806500D02*
G75*
G03X98380000Y-102806500I-2180000J0D01*
G01*
X103380000Y-102806500D02*
G75*
G03X103380000Y-102806500I-2180000J0D01*
G01*
X108380000Y-102806500D02*
G75*
G03X108380000Y-102806500I-2180000J0D01*
G01*
X77854000Y-101418500D02*
X77747000Y-101525500D01*
X74918000Y-104353500D02*
X74812000Y-104460500D01*
X77588000Y-101152500D02*
X77481000Y-101259500D01*
X74652000Y-104087500D02*
X74546000Y-104194500D01*
X82854000Y-101418500D02*
X82459000Y-101814500D01*
X80193000Y-104080500D02*
X79813000Y-104460500D01*
X82588000Y-101152500D02*
X82208000Y-101532500D01*
X79942000Y-103798500D02*
X79547000Y-104194500D01*
X87854000Y-101418500D02*
X87459000Y-101814500D01*
X85193000Y-104080500D02*
X84813000Y-104460500D01*
X87588000Y-101152500D02*
X87208000Y-101532500D01*
X84942000Y-103798500D02*
X84547000Y-104194500D01*
X92854000Y-101418500D02*
X92459000Y-101814500D01*
X90193000Y-104080500D02*
X89813000Y-104460500D01*
X92588000Y-101152500D02*
X92208000Y-101532500D01*
X89942000Y-103798500D02*
X89547000Y-104194500D01*
X97854000Y-101418500D02*
X97459000Y-101814500D01*
X95193000Y-104080500D02*
X94813000Y-104460500D01*
X97588000Y-101152500D02*
X97208000Y-101532500D01*
X94942000Y-103798500D02*
X94547000Y-104194500D01*
X102854000Y-101418500D02*
X102459000Y-101814500D01*
X100193000Y-104080500D02*
X99813000Y-104460500D01*
X102588000Y-101152500D02*
X102208000Y-101532500D01*
X99942000Y-103798500D02*
X99547000Y-104194500D01*
X107854000Y-101418500D02*
X107459000Y-101814500D01*
X105193000Y-104080500D02*
X104813000Y-104460500D01*
X107588000Y-101152500D02*
X107208000Y-101532500D01*
X104942000Y-103798500D02*
X104547000Y-104194500D01*
G04 #@! TO.C,PicoPSU*
X55820000Y-105856500D02*
X58670000Y-105856500D01*
X55820000Y-103006500D02*
X55820000Y-105856500D01*
X67280000Y-82096500D02*
X67280000Y-83906500D01*
X65880000Y-82096500D02*
X67280000Y-82096500D01*
X65880000Y-62196500D02*
X65880000Y-82096500D01*
X56060000Y-62196500D02*
X65880000Y-62196500D01*
X56060000Y-83906500D02*
X56060000Y-62196500D01*
X67280000Y-85716500D02*
X67280000Y-83906500D01*
X65880000Y-85716500D02*
X67280000Y-85716500D01*
X65880000Y-105616500D02*
X65880000Y-85716500D01*
X56060000Y-105616500D02*
X65880000Y-105616500D01*
X56060000Y-83906500D02*
X56060000Y-105616500D01*
G04 #@! TO.C,74LS04*
X73780000Y-129600000D02*
X73780000Y-119320000D01*
X55760000Y-129600000D02*
X73780000Y-129600000D01*
X55760000Y-119320000D02*
X55760000Y-129600000D01*
X73780000Y-119320000D02*
X55760000Y-119320000D01*
X73720000Y-127110000D02*
X73720000Y-125460000D01*
X55820000Y-127110000D02*
X73720000Y-127110000D01*
X55820000Y-121810000D02*
X55820000Y-127110000D01*
X73720000Y-121810000D02*
X55820000Y-121810000D01*
X73720000Y-123460000D02*
X73720000Y-121810000D01*
X73720000Y-125460000D02*
G75*
G02X73720000Y-123460000I0J1000000D01*
G01*
G04 #@! TO.C,4.7K*
X71850000Y-114400000D02*
X71850000Y-114070000D01*
X65310000Y-114400000D02*
X71850000Y-114400000D01*
X65310000Y-114070000D02*
X65310000Y-114400000D01*
X71850000Y-111660000D02*
X71850000Y-111990000D01*
X65310000Y-111660000D02*
X71850000Y-111660000D01*
X65310000Y-111990000D02*
X65310000Y-111660000D01*
G04 #@! TO.C,Fan*
X57684360Y-111138660D02*
X59014360Y-111138660D01*
X57684360Y-112468660D02*
X57684360Y-111138660D01*
X57684360Y-113738660D02*
X60344360Y-113738660D01*
X60344360Y-113738660D02*
X60344360Y-116338660D01*
X57684360Y-113738660D02*
X57684360Y-116338660D01*
X57684360Y-116338660D02*
X60344360Y-116338660D01*
G04 #@! TO.C,REF\002A\002A*
X78380000Y-64706500D02*
G75*
G03X78380000Y-64706500I-2180000J0D01*
G01*
X83380000Y-64706500D02*
G75*
G03X83380000Y-64706500I-2180000J0D01*
G01*
X88380000Y-64706500D02*
G75*
G03X88380000Y-64706500I-2180000J0D01*
G01*
X93380000Y-64706500D02*
G75*
G03X93380000Y-64706500I-2180000J0D01*
G01*
X98380000Y-64706500D02*
G75*
G03X98380000Y-64706500I-2180000J0D01*
G01*
X103380000Y-64706500D02*
G75*
G03X103380000Y-64706500I-2180000J0D01*
G01*
X108380000Y-64706500D02*
G75*
G03X108380000Y-64706500I-2180000J0D01*
G01*
X77854000Y-63318500D02*
X77747000Y-63425500D01*
X74918000Y-66253500D02*
X74812000Y-66360500D01*
X77588000Y-63052500D02*
X77481000Y-63159500D01*
X74652000Y-65987500D02*
X74546000Y-66094500D01*
X82854000Y-63318500D02*
X82459000Y-63714500D01*
X80193000Y-65980500D02*
X79813000Y-66360500D01*
X82588000Y-63052500D02*
X82208000Y-63432500D01*
X79942000Y-65698500D02*
X79547000Y-66094500D01*
X87854000Y-63318500D02*
X87459000Y-63714500D01*
X85193000Y-65980500D02*
X84813000Y-66360500D01*
X87588000Y-63052500D02*
X87208000Y-63432500D01*
X84942000Y-65698500D02*
X84547000Y-66094500D01*
X92854000Y-63318500D02*
X92459000Y-63714500D01*
X90193000Y-65980500D02*
X89813000Y-66360500D01*
X92588000Y-63052500D02*
X92208000Y-63432500D01*
X89942000Y-65698500D02*
X89547000Y-66094500D01*
X97854000Y-63318500D02*
X97459000Y-63714500D01*
X95193000Y-65980500D02*
X94813000Y-66360500D01*
X97588000Y-63052500D02*
X97208000Y-63432500D01*
X94942000Y-65698500D02*
X94547000Y-66094500D01*
X102854000Y-63318500D02*
X102459000Y-63714500D01*
X100193000Y-65980500D02*
X99813000Y-66360500D01*
X102588000Y-63052500D02*
X102208000Y-63432500D01*
X99942000Y-65698500D02*
X99547000Y-66094500D01*
X107854000Y-63318500D02*
X107459000Y-63714500D01*
X105193000Y-65980500D02*
X104813000Y-66360500D01*
X107588000Y-63052500D02*
X107208000Y-63432500D01*
X104942000Y-65698500D02*
X104547000Y-66094500D01*
G04 #@! TO.C,PicoPSU*
D12*
X55422380Y-86787452D02*
X54422380Y-86787452D01*
X54422380Y-86406500D01*
X54470000Y-86311261D01*
X54517619Y-86263642D01*
X54612857Y-86216023D01*
X54755714Y-86216023D01*
X54850952Y-86263642D01*
X54898571Y-86311261D01*
X54946190Y-86406500D01*
X54946190Y-86787452D01*
X55422380Y-85787452D02*
X54755714Y-85787452D01*
X54422380Y-85787452D02*
X54470000Y-85835071D01*
X54517619Y-85787452D01*
X54470000Y-85739833D01*
X54422380Y-85787452D01*
X54517619Y-85787452D01*
X55374761Y-84882690D02*
X55422380Y-84977928D01*
X55422380Y-85168404D01*
X55374761Y-85263642D01*
X55327142Y-85311261D01*
X55231904Y-85358880D01*
X54946190Y-85358880D01*
X54850952Y-85311261D01*
X54803333Y-85263642D01*
X54755714Y-85168404D01*
X54755714Y-84977928D01*
X54803333Y-84882690D01*
X55422380Y-84311261D02*
X55374761Y-84406500D01*
X55327142Y-84454119D01*
X55231904Y-84501738D01*
X54946190Y-84501738D01*
X54850952Y-84454119D01*
X54803333Y-84406500D01*
X54755714Y-84311261D01*
X54755714Y-84168404D01*
X54803333Y-84073166D01*
X54850952Y-84025547D01*
X54946190Y-83977928D01*
X55231904Y-83977928D01*
X55327142Y-84025547D01*
X55374761Y-84073166D01*
X55422380Y-84168404D01*
X55422380Y-84311261D01*
X55422380Y-83549357D02*
X54422380Y-83549357D01*
X54422380Y-83168404D01*
X54470000Y-83073166D01*
X54517619Y-83025547D01*
X54612857Y-82977928D01*
X54755714Y-82977928D01*
X54850952Y-83025547D01*
X54898571Y-83073166D01*
X54946190Y-83168404D01*
X54946190Y-83549357D01*
X55374761Y-82596976D02*
X55422380Y-82454119D01*
X55422380Y-82216023D01*
X55374761Y-82120785D01*
X55327142Y-82073166D01*
X55231904Y-82025547D01*
X55136666Y-82025547D01*
X55041428Y-82073166D01*
X54993809Y-82120785D01*
X54946190Y-82216023D01*
X54898571Y-82406500D01*
X54850952Y-82501738D01*
X54803333Y-82549357D01*
X54708095Y-82596976D01*
X54612857Y-82596976D01*
X54517619Y-82549357D01*
X54470000Y-82501738D01*
X54422380Y-82406500D01*
X54422380Y-82168404D01*
X54470000Y-82025547D01*
X54422380Y-81596976D02*
X55231904Y-81596976D01*
X55327142Y-81549357D01*
X55374761Y-81501738D01*
X55422380Y-81406500D01*
X55422380Y-81216023D01*
X55374761Y-81120785D01*
X55327142Y-81073166D01*
X55231904Y-81025547D01*
X54422380Y-81025547D01*
G04 #@! TO.C,74LS04*
X74172380Y-127102857D02*
X74172380Y-126436190D01*
X75172380Y-126864761D01*
X74505714Y-125626666D02*
X75172380Y-125626666D01*
X74124761Y-125864761D02*
X74839047Y-126102857D01*
X74839047Y-125483809D01*
X75172380Y-124626666D02*
X75172380Y-125102857D01*
X74172380Y-125102857D01*
X75124761Y-124340952D02*
X75172380Y-124198095D01*
X75172380Y-123960000D01*
X75124761Y-123864761D01*
X75077142Y-123817142D01*
X74981904Y-123769523D01*
X74886666Y-123769523D01*
X74791428Y-123817142D01*
X74743809Y-123864761D01*
X74696190Y-123960000D01*
X74648571Y-124150476D01*
X74600952Y-124245714D01*
X74553333Y-124293333D01*
X74458095Y-124340952D01*
X74362857Y-124340952D01*
X74267619Y-124293333D01*
X74220000Y-124245714D01*
X74172380Y-124150476D01*
X74172380Y-123912380D01*
X74220000Y-123769523D01*
X74172380Y-123150476D02*
X74172380Y-123055238D01*
X74220000Y-122960000D01*
X74267619Y-122912380D01*
X74362857Y-122864761D01*
X74553333Y-122817142D01*
X74791428Y-122817142D01*
X74981904Y-122864761D01*
X75077142Y-122912380D01*
X75124761Y-122960000D01*
X75172380Y-123055238D01*
X75172380Y-123150476D01*
X75124761Y-123245714D01*
X75077142Y-123293333D01*
X74981904Y-123340952D01*
X74791428Y-123388571D01*
X74553333Y-123388571D01*
X74362857Y-123340952D01*
X74267619Y-123293333D01*
X74220000Y-123245714D01*
X74172380Y-123150476D01*
X74505714Y-121960000D02*
X75172380Y-121960000D01*
X74124761Y-122198095D02*
X74839047Y-122436190D01*
X74839047Y-121817142D01*
G04 #@! TO.C,4.7K*
X67556190Y-110445714D02*
X67556190Y-111112380D01*
X67318095Y-110064761D02*
X67080000Y-110779047D01*
X67699047Y-110779047D01*
X68080000Y-111017142D02*
X68127619Y-111064761D01*
X68080000Y-111112380D01*
X68032380Y-111064761D01*
X68080000Y-111017142D01*
X68080000Y-111112380D01*
X68460952Y-110112380D02*
X69127619Y-110112380D01*
X68699047Y-111112380D01*
X69508571Y-111112380D02*
X69508571Y-110112380D01*
X70080000Y-111112380D02*
X69651428Y-110540952D01*
X70080000Y-110112380D02*
X69508571Y-110683809D01*
G04 #@! TO.C,Fan*
X58252455Y-110067231D02*
X57919121Y-110067231D01*
X57919121Y-110591040D02*
X57919121Y-109591040D01*
X58395312Y-109591040D01*
X59204836Y-110591040D02*
X59204836Y-110067231D01*
X59157217Y-109971993D01*
X59061979Y-109924374D01*
X58871502Y-109924374D01*
X58776264Y-109971993D01*
X59204836Y-110543421D02*
X59109598Y-110591040D01*
X58871502Y-110591040D01*
X58776264Y-110543421D01*
X58728645Y-110448183D01*
X58728645Y-110352945D01*
X58776264Y-110257707D01*
X58871502Y-110210088D01*
X59109598Y-110210088D01*
X59204836Y-110162469D01*
X59681026Y-109924374D02*
X59681026Y-110591040D01*
X59681026Y-110019612D02*
X59728645Y-109971993D01*
X59823883Y-109924374D01*
X59966740Y-109924374D01*
X60061979Y-109971993D01*
X60109598Y-110067231D01*
X60109598Y-110591040D01*
G04 #@! TD*
M02*
